<?xml version="1.0" encoding="UTF-8" standalone="no"?>
<!DOCTYPE svg PUBLIC "-//W3C//DTD SVG 1.1//EN"
 "http://www.w3.org/Graphics/SVG/1.1/DTD/svg11.dtd">
<!-- Generated by graphviz version 2.43.0 (0)
 -->
<!-- Title: %3 Pages: 1 -->
<svg width="1300pt" height="620pt"
 viewBox="0.00 0.00 1299.59 620.00" xmlns="http://www.w3.org/2000/svg" xmlns:xlink="http://www.w3.org/1999/xlink">
<g id="graph0" class="graph" transform="scale(1 1) rotate(0) translate(4 616)">
<title>%3</title>
<polygon fill="white" stroke="transparent" points="-4,4 -4,-616 1295.59,-616 1295.59,4 -4,4"/>
<!-- n0 -->
<g id="node1" class="node">
<title>n0</title>
<ellipse fill="none" stroke="black" cx="315.45" cy="-594" rx="72.29" ry="18"/>
<text text-anchor="middle" x="315.45" y="-590.3" font-family="Times,serif" font-size="14.00">e (x : &#45;95667)</text>
</g>
<!-- n1 -->
<g id="node2" class="node">
<title>n1</title>
<ellipse fill="none" stroke="black" cx="232.45" cy="-522" rx="44.39" ry="18"/>
<text text-anchor="middle" x="232.45" y="-518.3" font-family="Times,serif" font-size="14.00">t (x : 1)</text>
</g>
<!-- n0&#45;&#45;n1 -->
<g id="edge1" class="edge">
<title>n0&#45;&#45;n1</title>
<path fill="none" stroke="black" d="M295.78,-576.41C282.16,-564.93 264.17,-549.75 250.84,-538.51"/>
</g>
<!-- n6 -->
<g id="node7" class="node">
<title>n6</title>
<ellipse fill="none" stroke="black" cx="440.45" cy="-522" rx="76.89" ry="18"/>
<text text-anchor="middle" x="440.45" y="-518.3" font-family="Times,serif" font-size="14.00">e_ (x : &#45;95667)</text>
</g>
<!-- n0&#45;&#45;n6 -->
<g id="edge6" class="edge">
<title>n0&#45;&#45;n6</title>
<path fill="none" stroke="black" d="M343.5,-577.29C363.94,-565.84 391.53,-550.39 412.05,-538.9"/>
</g>
<!-- n2 -->
<g id="node3" class="node">
<title>n2</title>
<ellipse fill="none" stroke="black" cx="121.45" cy="-450" rx="44.39" ry="18"/>
<text text-anchor="middle" x="121.45" y="-446.3" font-family="Times,serif" font-size="14.00">f (x : 1)</text>
</g>
<!-- n1&#45;&#45;n2 -->
<g id="edge2" class="edge">
<title>n1&#45;&#45;n2</title>
<path fill="none" stroke="black" d="M209.45,-506.5C190.4,-494.48 163.46,-477.49 144.42,-465.49"/>
</g>
<!-- n4 -->
<g id="node5" class="node">
<title>n4</title>
<ellipse fill="none" stroke="black" cx="232.45" cy="-450" rx="48.99" ry="18"/>
<text text-anchor="middle" x="232.45" y="-446.3" font-family="Times,serif" font-size="14.00">t_ (x : 1)</text>
</g>
<!-- n1&#45;&#45;n4 -->
<g id="edge4" class="edge">
<title>n1&#45;&#45;n4</title>
<path fill="none" stroke="black" d="M232.45,-503.7C232.45,-492.85 232.45,-478.92 232.45,-468.1"/>
</g>
<!-- n3 -->
<g id="node4" class="node">
<title>n3</title>
<ellipse fill="none" stroke="black" cx="121.45" cy="-378" rx="47.39" ry="18"/>
<text text-anchor="middle" x="121.45" y="-374.3" font-family="Times,serif" font-size="14.00">NUM: 1</text>
</g>
<!-- n2&#45;&#45;n3 -->
<g id="edge3" class="edge">
<title>n2&#45;&#45;n3</title>
<path fill="none" stroke="black" d="M121.45,-431.7C121.45,-420.85 121.45,-406.92 121.45,-396.1"/>
</g>
<!-- n5 -->
<g id="node6" class="node">
<title>n5</title>
<ellipse fill="none" stroke="black" cx="224.45" cy="-378" rx="30.59" ry="18"/>
<text text-anchor="middle" x="224.45" y="-374.3" font-family="Times,serif" font-size="14.00">EPS</text>
</g>
<!-- n4&#45;&#45;n5 -->
<g id="edge5" class="edge">
<title>n4&#45;&#45;n5</title>
<path fill="none" stroke="black" d="M230.47,-431.7C229.23,-420.85 227.64,-406.92 226.4,-396.1"/>
</g>
<!-- n7 -->
<g id="node8" class="node">
<title>n7</title>
<ellipse fill="none" stroke="black" cx="371.45" cy="-450" rx="50.09" ry="18"/>
<text text-anchor="middle" x="371.45" y="-446.3" font-family="Times,serif" font-size="14.00">PLUS: +</text>
</g>
<!-- n6&#45;&#45;n7 -->
<g id="edge7" class="edge">
<title>n6&#45;&#45;n7</title>
<path fill="none" stroke="black" d="M424.09,-504.41C413.09,-493.25 398.66,-478.6 387.68,-467.47"/>
</g>
<!-- n8 -->
<g id="node9" class="node">
<title>n8</title>
<ellipse fill="none" stroke="black" cx="510.45" cy="-450" rx="70.69" ry="18"/>
<text text-anchor="middle" x="510.45" y="-446.3" font-family="Times,serif" font-size="14.00">t (x : &#45;66886)</text>
</g>
<!-- n6&#45;&#45;n8 -->
<g id="edge8" class="edge">
<title>n6&#45;&#45;n8</title>
<path fill="none" stroke="black" d="M457.03,-504.41C468.03,-493.41 482.42,-479.03 493.49,-467.96"/>
</g>
<!-- n33 -->
<g id="node34" class="node">
<title>n33</title>
<ellipse fill="none" stroke="black" cx="811.45" cy="-450" rx="76.89" ry="18"/>
<text text-anchor="middle" x="811.45" y="-446.3" font-family="Times,serif" font-size="14.00">e_ (x : &#45;95667)</text>
</g>
<!-- n6&#45;&#45;n33 -->
<g id="edge33" class="edge">
<title>n6&#45;&#45;n33</title>
<path fill="none" stroke="black" d="M498.41,-510.06C568.01,-496.93 684.03,-475.04 753.58,-461.92"/>
</g>
<!-- n9 -->
<g id="node10" class="node">
<title>n9</title>
<ellipse fill="none" stroke="black" cx="319.45" cy="-378" rx="46.59" ry="18"/>
<text text-anchor="middle" x="319.45" y="-374.3" font-family="Times,serif" font-size="14.00">f (x : &#45;2)</text>
</g>
<!-- n8&#45;&#45;n9 -->
<g id="edge9" class="edge">
<title>n8&#45;&#45;n9</title>
<path fill="none" stroke="black" d="M471.79,-434.83C436.59,-421.93 385.17,-403.09 352.01,-390.93"/>
</g>
<!-- n27 -->
<g id="node28" class="node">
<title>n27</title>
<ellipse fill="none" stroke="black" cx="531.45" cy="-378" rx="75.29" ry="18"/>
<text text-anchor="middle" x="531.45" y="-374.3" font-family="Times,serif" font-size="14.00">t_ (x : &#45;66886)</text>
</g>
<!-- n8&#45;&#45;n27 -->
<g id="edge27" class="edge">
<title>n8&#45;&#45;n27</title>
<path fill="none" stroke="black" d="M515.64,-431.7C518.89,-420.85 523.07,-406.92 526.31,-396.1"/>
</g>
<!-- n10 -->
<g id="node11" class="node">
<title>n10</title>
<ellipse fill="none" stroke="black" cx="119.45" cy="-306" rx="32.49" ry="18"/>
<text text-anchor="middle" x="119.45" y="-302.3" font-family="Times,serif" font-size="14.00">LB: (</text>
</g>
<!-- n9&#45;&#45;n10 -->
<g id="edge10" class="edge">
<title>n9&#45;&#45;n10</title>
<path fill="none" stroke="black" d="M284.14,-366.03C251.75,-355.78 202.56,-339.73 160.45,-324 155.25,-322.06 149.73,-319.87 144.49,-317.71"/>
</g>
<!-- n11 -->
<g id="node12" class="node">
<title>n11</title>
<ellipse fill="none" stroke="black" cx="218.45" cy="-306" rx="48.99" ry="18"/>
<text text-anchor="middle" x="218.45" y="-302.3" font-family="Times,serif" font-size="14.00">e (x : &#45;2)</text>
</g>
<!-- n9&#45;&#45;n11 -->
<g id="edge11" class="edge">
<title>n9&#45;&#45;n11</title>
<path fill="none" stroke="black" d="M297.53,-361.81C280.59,-350.07 257.25,-333.89 240.32,-322.16"/>
</g>
<!-- n26 -->
<g id="node27" class="node">
<title>n26</title>
<ellipse fill="none" stroke="black" cx="319.45" cy="-306" rx="33.6" ry="18"/>
<text text-anchor="middle" x="319.45" y="-302.3" font-family="Times,serif" font-size="14.00">RB: )</text>
</g>
<!-- n9&#45;&#45;n26 -->
<g id="edge26" class="edge">
<title>n9&#45;&#45;n26</title>
<path fill="none" stroke="black" d="M319.45,-359.7C319.45,-348.85 319.45,-334.92 319.45,-324.1"/>
</g>
<!-- n12 -->
<g id="node13" class="node">
<title>n12</title>
<ellipse fill="none" stroke="black" cx="158.45" cy="-234" rx="44.39" ry="18"/>
<text text-anchor="middle" x="158.45" y="-230.3" font-family="Times,serif" font-size="14.00">t (x : 3)</text>
</g>
<!-- n11&#45;&#45;n12 -->
<g id="edge12" class="edge">
<title>n11&#45;&#45;n12</title>
<path fill="none" stroke="black" d="M204.23,-288.41C194.66,-277.25 182.11,-262.6 172.56,-251.47"/>
</g>
<!-- n17 -->
<g id="node18" class="node">
<title>n17</title>
<ellipse fill="none" stroke="black" cx="337.45" cy="-234" rx="53.09" ry="18"/>
<text text-anchor="middle" x="337.45" y="-230.3" font-family="Times,serif" font-size="14.00">e_ (x : &#45;2)</text>
</g>
<!-- n11&#45;&#45;n17 -->
<g id="edge17" class="edge">
<title>n11&#45;&#45;n17</title>
<path fill="none" stroke="black" d="M243.39,-290.33C263.57,-278.46 291.85,-261.82 312.12,-249.9"/>
</g>
<!-- n13 -->
<g id="node14" class="node">
<title>n13</title>
<ellipse fill="none" stroke="black" cx="47.45" cy="-162" rx="44.39" ry="18"/>
<text text-anchor="middle" x="47.45" y="-158.3" font-family="Times,serif" font-size="14.00">f (x : 3)</text>
</g>
<!-- n12&#45;&#45;n13 -->
<g id="edge13" class="edge">
<title>n12&#45;&#45;n13</title>
<path fill="none" stroke="black" d="M135.45,-218.5C116.4,-206.48 89.46,-189.49 70.42,-177.49"/>
</g>
<!-- n15 -->
<g id="node16" class="node">
<title>n15</title>
<ellipse fill="none" stroke="black" cx="158.45" cy="-162" rx="48.99" ry="18"/>
<text text-anchor="middle" x="158.45" y="-158.3" font-family="Times,serif" font-size="14.00">t_ (x : 3)</text>
</g>
<!-- n12&#45;&#45;n15 -->
<g id="edge15" class="edge">
<title>n12&#45;&#45;n15</title>
<path fill="none" stroke="black" d="M158.45,-215.7C158.45,-204.85 158.45,-190.92 158.45,-180.1"/>
</g>
<!-- n14 -->
<g id="node15" class="node">
<title>n14</title>
<ellipse fill="none" stroke="black" cx="47.45" cy="-90" rx="47.39" ry="18"/>
<text text-anchor="middle" x="47.45" y="-86.3" font-family="Times,serif" font-size="14.00">NUM: 3</text>
</g>
<!-- n13&#45;&#45;n14 -->
<g id="edge14" class="edge">
<title>n13&#45;&#45;n14</title>
<path fill="none" stroke="black" d="M47.45,-143.7C47.45,-132.85 47.45,-118.92 47.45,-108.1"/>
</g>
<!-- n16 -->
<g id="node17" class="node">
<title>n16</title>
<ellipse fill="none" stroke="black" cx="158.45" cy="-90" rx="30.59" ry="18"/>
<text text-anchor="middle" x="158.45" y="-86.3" font-family="Times,serif" font-size="14.00">EPS</text>
</g>
<!-- n15&#45;&#45;n16 -->
<g id="edge16" class="edge">
<title>n15&#45;&#45;n16</title>
<path fill="none" stroke="black" d="M158.45,-143.7C158.45,-132.85 158.45,-118.92 158.45,-108.1"/>
</g>
<!-- n18 -->
<g id="node19" class="node">
<title>n18</title>
<ellipse fill="none" stroke="black" cx="279.45" cy="-162" rx="53.89" ry="18"/>
<text text-anchor="middle" x="279.45" y="-158.3" font-family="Times,serif" font-size="14.00">MINUS: &#45;</text>
</g>
<!-- n17&#45;&#45;n18 -->
<g id="edge18" class="edge">
<title>n17&#45;&#45;n18</title>
<path fill="none" stroke="black" d="M323.7,-216.41C314.45,-205.25 302.32,-190.6 293.09,-179.47"/>
</g>
<!-- n19 -->
<g id="node20" class="node">
<title>n19</title>
<ellipse fill="none" stroke="black" cx="395.45" cy="-162" rx="44.39" ry="18"/>
<text text-anchor="middle" x="395.45" y="-158.3" font-family="Times,serif" font-size="14.00">t (x : 5)</text>
</g>
<!-- n17&#45;&#45;n19 -->
<g id="edge19" class="edge">
<title>n17&#45;&#45;n19</title>
<path fill="none" stroke="black" d="M351.19,-216.41C360.44,-205.25 372.57,-190.6 381.8,-179.47"/>
</g>
<!-- n24 -->
<g id="node25" class="node">
<title>n24</title>
<ellipse fill="none" stroke="black" cx="510.45" cy="-162" rx="53.09" ry="18"/>
<text text-anchor="middle" x="510.45" y="-158.3" font-family="Times,serif" font-size="14.00">e_ (x : &#45;2)</text>
</g>
<!-- n17&#45;&#45;n24 -->
<g id="edge24" class="edge">
<title>n17&#45;&#45;n24</title>
<path fill="none" stroke="black" d="M370.39,-219.67C401.18,-207.21 446.88,-188.72 477.62,-176.28"/>
</g>
<!-- n20 -->
<g id="node21" class="node">
<title>n20</title>
<ellipse fill="none" stroke="black" cx="293.45" cy="-90" rx="44.39" ry="18"/>
<text text-anchor="middle" x="293.45" y="-86.3" font-family="Times,serif" font-size="14.00">f (x : 5)</text>
</g>
<!-- n19&#45;&#45;n20 -->
<g id="edge20" class="edge">
<title>n19&#45;&#45;n20</title>
<path fill="none" stroke="black" d="M373.81,-146.15C356.5,-134.28 332.35,-117.7 315.05,-105.82"/>
</g>
<!-- n22 -->
<g id="node23" class="node">
<title>n22</title>
<ellipse fill="none" stroke="black" cx="404.45" cy="-90" rx="48.99" ry="18"/>
<text text-anchor="middle" x="404.45" y="-86.3" font-family="Times,serif" font-size="14.00">t_ (x : 5)</text>
</g>
<!-- n19&#45;&#45;n22 -->
<g id="edge22" class="edge">
<title>n19&#45;&#45;n22</title>
<path fill="none" stroke="black" d="M397.67,-143.7C399.07,-132.85 400.86,-118.92 402.25,-108.1"/>
</g>
<!-- n21 -->
<g id="node22" class="node">
<title>n21</title>
<ellipse fill="none" stroke="black" cx="293.45" cy="-18" rx="47.39" ry="18"/>
<text text-anchor="middle" x="293.45" y="-14.3" font-family="Times,serif" font-size="14.00">NUM: 5</text>
</g>
<!-- n20&#45;&#45;n21 -->
<g id="edge21" class="edge">
<title>n20&#45;&#45;n21</title>
<path fill="none" stroke="black" d="M293.45,-71.7C293.45,-60.85 293.45,-46.92 293.45,-36.1"/>
</g>
<!-- n23 -->
<g id="node24" class="node">
<title>n23</title>
<ellipse fill="none" stroke="black" cx="404.45" cy="-18" rx="30.59" ry="18"/>
<text text-anchor="middle" x="404.45" y="-14.3" font-family="Times,serif" font-size="14.00">EPS</text>
</g>
<!-- n22&#45;&#45;n23 -->
<g id="edge23" class="edge">
<title>n22&#45;&#45;n23</title>
<path fill="none" stroke="black" d="M404.45,-71.7C404.45,-60.85 404.45,-46.92 404.45,-36.1"/>
</g>
<!-- n25 -->
<g id="node26" class="node">
<title>n25</title>
<ellipse fill="none" stroke="black" cx="510.45" cy="-90" rx="30.59" ry="18"/>
<text text-anchor="middle" x="510.45" y="-86.3" font-family="Times,serif" font-size="14.00">EPS</text>
</g>
<!-- n24&#45;&#45;n25 -->
<g id="edge25" class="edge">
<title>n24&#45;&#45;n25</title>
<path fill="none" stroke="black" d="M510.45,-143.7C510.45,-132.85 510.45,-118.92 510.45,-108.1"/>
</g>
<!-- n28 -->
<g id="node29" class="node">
<title>n28</title>
<ellipse fill="none" stroke="black" cx="415.45" cy="-306" rx="44.39" ry="18"/>
<text text-anchor="middle" x="415.45" y="-302.3" font-family="Times,serif" font-size="14.00">MUL: *</text>
</g>
<!-- n27&#45;&#45;n28 -->
<g id="edge28" class="edge">
<title>n27&#45;&#45;n28</title>
<path fill="none" stroke="black" d="M505.12,-361.12C485.34,-349.18 458.46,-332.95 439.3,-321.39"/>
</g>
<!-- n29 -->
<g id="node30" class="node">
<title>n29</title>
<ellipse fill="none" stroke="black" cx="545.45" cy="-306" rx="67.69" ry="18"/>
<text text-anchor="middle" x="545.45" y="-302.3" font-family="Times,serif" font-size="14.00">f (x : 33443)</text>
</g>
<!-- n27&#45;&#45;n29 -->
<g id="edge29" class="edge">
<title>n27&#45;&#45;n29</title>
<path fill="none" stroke="black" d="M534.91,-359.7C537.08,-348.85 539.86,-334.92 542.02,-324.1"/>
</g>
<!-- n31 -->
<g id="node32" class="node">
<title>n31</title>
<ellipse fill="none" stroke="black" cx="706.45" cy="-306" rx="75.29" ry="18"/>
<text text-anchor="middle" x="706.45" y="-302.3" font-family="Times,serif" font-size="14.00">t_ (x : &#45;66886)</text>
</g>
<!-- n27&#45;&#45;n31 -->
<g id="edge31" class="edge">
<title>n27&#45;&#45;n31</title>
<path fill="none" stroke="black" d="M568.56,-362.15C598.26,-350.28 639.7,-333.7 669.39,-321.82"/>
</g>
<!-- n30 -->
<g id="node31" class="node">
<title>n30</title>
<ellipse fill="none" stroke="black" cx="545.45" cy="-234" rx="70.69" ry="18"/>
<text text-anchor="middle" x="545.45" y="-230.3" font-family="Times,serif" font-size="14.00">NUM: 33443</text>
</g>
<!-- n29&#45;&#45;n30 -->
<g id="edge30" class="edge">
<title>n29&#45;&#45;n30</title>
<path fill="none" stroke="black" d="M545.45,-287.7C545.45,-276.85 545.45,-262.92 545.45,-252.1"/>
</g>
<!-- n32 -->
<g id="node33" class="node">
<title>n32</title>
<ellipse fill="none" stroke="black" cx="706.45" cy="-234" rx="30.59" ry="18"/>
<text text-anchor="middle" x="706.45" y="-230.3" font-family="Times,serif" font-size="14.00">EPS</text>
</g>
<!-- n31&#45;&#45;n32 -->
<g id="edge32" class="edge">
<title>n31&#45;&#45;n32</title>
<path fill="none" stroke="black" d="M706.45,-287.7C706.45,-276.85 706.45,-262.92 706.45,-252.1"/>
</g>
<!-- n34 -->
<g id="node35" class="node">
<title>n34</title>
<ellipse fill="none" stroke="black" cx="741.45" cy="-378" rx="53.89" ry="18"/>
<text text-anchor="middle" x="741.45" y="-374.3" font-family="Times,serif" font-size="14.00">MINUS: &#45;</text>
</g>
<!-- n33&#45;&#45;n34 -->
<g id="edge34" class="edge">
<title>n33&#45;&#45;n34</title>
<path fill="none" stroke="black" d="M794.86,-432.41C783.7,-421.25 769.05,-406.6 757.92,-395.47"/>
</g>
<!-- n35 -->
<g id="node36" class="node">
<title>n35</title>
<ellipse fill="none" stroke="black" cx="881.45" cy="-378" rx="67.69" ry="18"/>
<text text-anchor="middle" x="881.45" y="-374.3" font-family="Times,serif" font-size="14.00">t (x : 28782)</text>
</g>
<!-- n33&#45;&#45;n35 -->
<g id="edge35" class="edge">
<title>n33&#45;&#45;n35</title>
<path fill="none" stroke="black" d="M828.03,-432.41C839.19,-421.25 853.84,-406.6 864.98,-395.47"/>
</g>
<!-- n44 -->
<g id="node45" class="node">
<title>n44</title>
<ellipse fill="none" stroke="black" cx="1095.45" cy="-378" rx="76.89" ry="18"/>
<text text-anchor="middle" x="1095.45" y="-374.3" font-family="Times,serif" font-size="14.00">e_ (x : &#45;95667)</text>
</g>
<!-- n33&#45;&#45;n44 -->
<g id="edge44" class="edge">
<title>n33&#45;&#45;n44</title>
<path fill="none" stroke="black" d="M862.22,-436.49C913.75,-423.78 993.09,-404.23 1044.63,-391.52"/>
</g>
<!-- n36 -->
<g id="node37" class="node">
<title>n36</title>
<ellipse fill="none" stroke="black" cx="855.45" cy="-306" rx="55.79" ry="18"/>
<text text-anchor="middle" x="855.45" y="-302.3" font-family="Times,serif" font-size="14.00">f (x : 123)</text>
</g>
<!-- n35&#45;&#45;n36 -->
<g id="edge36" class="edge">
<title>n35&#45;&#45;n36</title>
<path fill="none" stroke="black" d="M875.15,-360.05C871.12,-349.21 865.91,-335.18 861.86,-324.28"/>
</g>
<!-- n38 -->
<g id="node39" class="node">
<title>n38</title>
<ellipse fill="none" stroke="black" cx="1001.45" cy="-306" rx="72.29" ry="18"/>
<text text-anchor="middle" x="1001.45" y="-302.3" font-family="Times,serif" font-size="14.00">t_ (x : 28782)</text>
</g>
<!-- n35&#45;&#45;n38 -->
<g id="edge38" class="edge">
<title>n35&#45;&#45;n38</title>
<path fill="none" stroke="black" d="M908.38,-361.29C928,-349.84 954.49,-334.39 974.19,-322.9"/>
</g>
<!-- n37 -->
<g id="node38" class="node">
<title>n37</title>
<ellipse fill="none" stroke="black" cx="834.45" cy="-234" rx="59.29" ry="18"/>
<text text-anchor="middle" x="834.45" y="-230.3" font-family="Times,serif" font-size="14.00">NUM: 123</text>
</g>
<!-- n36&#45;&#45;n37 -->
<g id="edge37" class="edge">
<title>n36&#45;&#45;n37</title>
<path fill="none" stroke="black" d="M850.36,-288.05C847.11,-277.21 842.9,-263.18 839.63,-252.28"/>
</g>
<!-- n39 -->
<g id="node40" class="node">
<title>n39</title>
<ellipse fill="none" stroke="black" cx="955.45" cy="-234" rx="44.39" ry="18"/>
<text text-anchor="middle" x="955.45" y="-230.3" font-family="Times,serif" font-size="14.00">MUL: *</text>
</g>
<!-- n38&#45;&#45;n39 -->
<g id="edge39" class="edge">
<title>n38&#45;&#45;n39</title>
<path fill="none" stroke="black" d="M990.31,-288.05C983.08,-277.05 973.69,-262.76 966.48,-251.79"/>
</g>
<!-- n40 -->
<g id="node41" class="node">
<title>n40</title>
<ellipse fill="none" stroke="black" cx="1073.45" cy="-234" rx="55.79" ry="18"/>
<text text-anchor="middle" x="1073.45" y="-230.3" font-family="Times,serif" font-size="14.00">f (x : 234)</text>
</g>
<!-- n38&#45;&#45;n40 -->
<g id="edge40" class="edge">
<title>n38&#45;&#45;n40</title>
<path fill="none" stroke="black" d="M1018.51,-288.41C1029.99,-277.25 1045.05,-262.6 1056.51,-251.47"/>
</g>
<!-- n42 -->
<g id="node43" class="node">
<title>n42</title>
<ellipse fill="none" stroke="black" cx="1219.45" cy="-234" rx="72.29" ry="18"/>
<text text-anchor="middle" x="1219.45" y="-230.3" font-family="Times,serif" font-size="14.00">t_ (x : 28782)</text>
</g>
<!-- n38&#45;&#45;n42 -->
<g id="edge42" class="edge">
<title>n38&#45;&#45;n42</title>
<path fill="none" stroke="black" d="M1044,-291.34C1082.41,-279 1138.62,-260.95 1177,-248.63"/>
</g>
<!-- n41 -->
<g id="node42" class="node">
<title>n41</title>
<ellipse fill="none" stroke="black" cx="1073.45" cy="-162" rx="59.29" ry="18"/>
<text text-anchor="middle" x="1073.45" y="-158.3" font-family="Times,serif" font-size="14.00">NUM: 234</text>
</g>
<!-- n40&#45;&#45;n41 -->
<g id="edge41" class="edge">
<title>n40&#45;&#45;n41</title>
<path fill="none" stroke="black" d="M1073.45,-215.7C1073.45,-204.85 1073.45,-190.92 1073.45,-180.1"/>
</g>
<!-- n43 -->
<g id="node44" class="node">
<title>n43</title>
<ellipse fill="none" stroke="black" cx="1219.45" cy="-162" rx="30.59" ry="18"/>
<text text-anchor="middle" x="1219.45" y="-158.3" font-family="Times,serif" font-size="14.00">EPS</text>
</g>
<!-- n42&#45;&#45;n43 -->
<g id="edge43" class="edge">
<title>n42&#45;&#45;n43</title>
<path fill="none" stroke="black" d="M1219.45,-215.7C1219.45,-204.85 1219.45,-190.92 1219.45,-180.1"/>
</g>
<!-- n45 -->
<g id="node46" class="node">
<title>n45</title>
<ellipse fill="none" stroke="black" cx="1122.45" cy="-306" rx="30.59" ry="18"/>
<text text-anchor="middle" x="1122.45" y="-302.3" font-family="Times,serif" font-size="14.00">EPS</text>
</g>
<!-- n44&#45;&#45;n45 -->
<g id="edge45" class="edge">
<title>n44&#45;&#45;n45</title>
<path fill="none" stroke="black" d="M1101.98,-360.05C1106.23,-349.05 1111.74,-334.76 1115.97,-323.79"/>
</g>
</g>
</svg>
